<svg width="32" height="32" viewBox="0 0 32 32" fill="none" xmlns="http://www.w3.org/2000/svg">
<path fill-rule="evenodd" clip-rule="evenodd" d="M9.4656 2.4C5.1728 2.4 2.4 5.016 2.4 9.064V22.9344C2.4 26.9824 5.1728 29.6 9.4656 29.6H22.5344C26.8272 29.6 29.6 26.9824 29.6 22.9344V9.064C29.6 5.016 26.8272 2.4 22.5344 2.4H9.4656ZM22.5344 32H9.4656C3.8048 32 0 28.3568 0 22.9344V9.064C0 3.6416 3.8048 0 9.4656 0H22.5344C28.1952 0 32 3.6416 32 9.064V22.9344C32 28.3568 28.1952 32 22.5344 32Z" fill="#233B37"/>
<path fill-rule="evenodd" clip-rule="evenodd" d="M22.5374 17.2H9.46221C8.79981 17.2 8.26221 16.6624 8.26221 16C8.26221 15.3376 8.79981 14.8 9.46221 14.8H22.5374C23.1998 14.8 23.7374 15.3376 23.7374 16C23.7374 16.6624 23.1998 17.2 22.5374 17.2Z" fill="#889895"/>
<path fill-rule="evenodd" clip-rule="evenodd" d="M16.5157 23.1968C16.2085 23.1968 15.8997 23.08 15.6661 22.8432C15.1989 22.3728 15.2005 21.6144 15.6693 21.1472L20.8373 16L15.6693 10.8528C15.2005 10.3856 15.1989 9.62719 15.6661 9.15679C16.1333 8.68639 16.8917 8.68639 17.3621 9.15359L23.3845 15.1504C23.6117 15.3744 23.7381 15.6816 23.7381 16C23.7381 16.3184 23.6117 16.6256 23.3845 16.8496L17.3621 22.8464C17.1285 23.08 16.8213 23.1968 16.5157 23.1968Z" fill="#889895"/>
</svg>
