<svg width="32" height="32" viewBox="0 0 32 32" fill="none" xmlns="http://www.w3.org/2000/svg">
<path fill-rule="evenodd" clip-rule="evenodd" d="M22.5344 2.4C26.8272 2.4 29.6 5.016 29.6 9.064V22.9344C29.6 26.9824 26.8272 29.6 22.5344 29.6H9.4656C5.1728 29.6 2.4 26.9824 2.4 22.9344V9.064C2.4 5.016 5.1728 2.4 9.4656 2.4H22.5344ZM9.4656 32H22.5344C28.1952 32 32 28.3568 32 22.9344V9.064C32 3.6416 28.1952 0 22.5344 0H9.4656C3.8048 0 -4.76837e-07 3.6416 -4.76837e-07 9.064V22.9344C-4.76837e-07 28.3568 3.8048 32 9.4656 32V32Z" fill="#233B37"/>
<path fill-rule="evenodd" clip-rule="evenodd" d="M9.46259 17.2H22.5378C23.2002 17.2 23.7378 16.6624 23.7378 16C23.7378 15.3376 23.2002 14.8 22.5378 14.8H9.46259C8.80019 14.8 8.26259 15.3376 8.26259 16C8.26259 16.6624 8.80019 17.2 9.46259 17.2" fill="#889895"/>
<path fill-rule="evenodd" clip-rule="evenodd" d="M15.4843 23.1968C15.7915 23.1968 16.1003 23.08 16.3339 22.8432C16.8011 22.3728 16.7995 21.6144 16.3307 21.1472L11.1627 16L16.3307 10.8528C16.7995 10.3856 16.8011 9.62719 16.3339 9.15679C15.8667 8.68639 15.1083 8.68639 14.6379 9.15359L8.61555 15.1504C8.38835 15.3744 8.26195 15.6816 8.26195 16C8.26195 16.3184 8.38835 16.6256 8.61555 16.8496L14.6379 22.8464C14.8715 23.08 15.1787 23.1968 15.4843 23.1968" fill="#889895"/>
</svg>
