<svg width="24" height="24" viewBox="0 0 24 24" fill="none" xmlns="http://www.w3.org/2000/svg">
<path fill-rule="evenodd" clip-rule="evenodd" d="M6.7992 1.8C3.7632 1.8 1.8 3.8796 1.8 7.0992V16.9008C1.8 20.1204 3.7632 22.2 6.7992 22.2H17.202C20.238 22.2 22.2 20.1204 22.2 16.9008V7.0992C22.2 3.8796 20.238 1.8 17.202 1.8H6.7992ZM17.202 24H6.7992C2.7324 24 0 21.1464 0 16.9008V7.0992C0 2.8536 2.7324 0 6.7992 0H17.202C21.2688 0 24 2.8536 24 7.0992V16.9008C24 21.1464 21.2688 24 17.202 24Z" fill="#2AAE9B"/>
<path fill-rule="evenodd" clip-rule="evenodd" d="M12 17.8029C11.5032 17.8029 11.1 17.3997 11.1 16.9029V7.09653C11.1 6.59973 11.5032 6.19653 12 6.19653C12.4968 6.19653 12.9 6.59973 12.9 7.09653V16.9029C12.9 17.3997 12.4968 17.8029 12 17.8029Z" fill="#A5DBD2"/>
<path fill-rule="evenodd" clip-rule="evenodd" d="M12 17.8045C11.7612 17.8045 11.5308 17.7097 11.3628 17.5393L6.86516 13.0225C6.51356 12.6697 6.51596 12.0997 6.86756 11.7493C7.22036 11.4001 7.78916 11.3977 8.13956 11.7517L12 15.6289L15.8604 11.7517C16.212 11.3977 16.7808 11.4001 17.1324 11.7493C17.484 12.0997 17.4864 12.6697 17.1348 13.0225L12.6372 17.5393C12.4692 17.7097 12.2388 17.8045 12 17.8045Z" fill="#A5DBD2"/>
</svg>
