<svg width="34" height="34" viewBox="0 0 34 34" fill="none" xmlns="http://www.w3.org/2000/svg">
<rect width="34" height="34" rx="4" fill="#80B4FC"/>
<path d="M19.754 15C20.7205 15 21.504 15.7835 21.504 16.75V21.499C21.504 23.9848 19.4888 26 17.003 26C14.5171 26 12.5019 23.9848 12.5019 21.499V16.75C12.5019 15.7835 13.2854 15 14.2519 15H19.754ZM19.754 16.5H14.2519C14.1139 16.5 14.0019 16.6119 14.0019 16.75V21.499C14.0019 23.1564 15.3455 24.5 17.003 24.5C18.6604 24.5 20.004 23.1564 20.004 21.499V16.75C20.004 16.6119 19.8921 16.5 19.754 16.5ZM8.75 15L12.1313 14.9991C11.7879 15.4145 11.5642 15.9325 11.5131 16.5002L8.75 16.5C8.61193 16.5 8.5 16.6119 8.5 16.75V19.9988C8.5 21.3802 9.61984 22.5 11.0012 22.5C11.2012 22.5 11.3957 22.4765 11.5822 22.4322C11.6669 22.9361 11.8216 23.4167 12.0349 23.864C11.7058 23.953 11.359 24 11.0012 24C8.79142 24 7 22.2086 7 19.9988V16.75C7 15.7835 7.7835 15 8.75 15ZM21.8747 14.9991L25.25 15C26.2165 15 27 15.7835 27 16.75V20C27 22.2091 25.2091 24 23 24C22.6436 24 22.298 23.9534 21.9691 23.8659C22.184 23.4177 22.3388 22.9371 22.425 22.4331C22.6092 22.477 22.8019 22.5 23 22.5C24.3807 22.5 25.5 21.3807 25.5 20V16.75C25.5 16.6119 25.3881 16.5 25.25 16.5L22.4928 16.5002C22.4417 15.9325 22.218 15.4145 21.8747 14.9991ZM17 8C18.6569 8 20 9.34315 20 11C20 12.6568 18.6569 14 17 14C15.3431 14 14 12.6568 14 11C14 9.34315 15.3431 8 17 8ZM23.5 9C24.8807 9 26 10.1193 26 11.5C26 12.8807 24.8807 14 23.5 14C22.1193 14 21 12.8807 21 11.5C21 10.1193 22.1193 9 23.5 9ZM10.5 9C11.8807 9 13 10.1193 13 11.5C13 12.8807 11.8807 14 10.5 14C9.11929 14 8 12.8807 8 11.5C8 10.1193 9.11929 9 10.5 9ZM17 9.5C16.1716 9.5 15.5 10.1716 15.5 11C15.5 11.8284 16.1716 12.5 17 12.5C17.8284 12.5 18.5 11.8284 18.5 11C18.5 10.1716 17.8284 9.5 17 9.5ZM23.5 10.5C22.9477 10.5 22.5 10.9477 22.5 11.5C22.5 12.0523 22.9477 12.5 23.5 12.5C24.0523 12.5 24.5 12.0523 24.5 11.5C24.5 10.9477 24.0523 10.5 23.5 10.5ZM10.5 10.5C9.94772 10.5 9.5 10.9477 9.5 11.5C9.5 12.0523 9.94772 12.5 10.5 12.5C11.0523 12.5 11.5 12.0523 11.5 11.5C11.5 10.9477 11.0523 10.5 10.5 10.5Z" fill="white"/>
</svg>
