<svg width="34" height="34" viewBox="0 0 34 34" fill="none" xmlns="http://www.w3.org/2000/svg">
<rect width="34" height="34" rx="4" fill="#FFCF99"/>
<path fill-rule="evenodd" clip-rule="evenodd" d="M11.6316 8.36247C11.6316 8.16228 11.7942 8 11.9947 8H12.7211C12.9216 8 13.0842 8.16228 13.0842 8.36247V10.1748H20.3474V8.36247C20.3474 8.16228 20.51 8 20.7105 8H21.4369C21.6374 8 21.8 8.16228 21.8 8.36247V10.1748H23.9789C24.7812 10.1748 25.4316 10.824 25.4316 11.6247V21.6421C25.4316 20.4309 24.8634 19.3524 23.9789 18.6587V15.2494H9.45263V22.4988C9.45263 22.8992 9.77782 23.2238 10.1789 23.2238H18.1975C18.4622 23.7994 18.8669 24.2972 19.368 24.6737H9.45263C8.65036 24.6737 8 24.0245 8 23.2238V11.6247C8 10.824 8.65036 10.1748 9.45263 10.1748H11.6316V8.36247ZM13.0842 11.6247H20.3474V12.3497C20.3474 12.5498 20.51 12.7121 20.7105 12.7121H21.4369C21.6374 12.7121 21.8 12.5498 21.8 12.3497V11.6247H23.2526C23.6538 11.6247 23.9789 11.9493 23.9789 12.3497V13.7996H9.45263V12.3497C9.45263 11.9493 9.77782 11.6247 10.1789 11.6247H11.6316V12.3497C11.6316 12.5498 11.7942 12.7121 11.9947 12.7121H12.7211C12.9216 12.7121 13.0842 12.5498 13.0842 12.3497V11.6247Z" fill="white"/>
<path d="M23.9163 24.6737C24.8365 23.9823 25.4317 22.8817 25.4317 21.6421V23.2238C25.4317 24.0245 24.7813 24.6737 23.979 24.6737H23.9163Z" fill="white"/>
<path fill-rule="evenodd" clip-rule="evenodd" d="M21.6421 18.421C19.8631 18.421 18.421 19.8631 18.421 21.6421C18.421 23.421 19.8631 24.8631 21.6421 24.8631C23.421 24.8631 24.8631 23.421 24.8631 21.6421C24.8631 19.8631 23.421 18.421 21.6421 18.421ZM17.2842 21.6421C17.2842 19.2353 19.2353 17.2842 21.6421 17.2842C24.0488 17.2842 26 19.2353 26 21.6421C26 24.0488 24.0488 26 21.6421 26C19.2353 26 17.2842 24.0488 17.2842 21.6421Z" fill="white"/>
<path d="M19.748 21.1716C19.8959 21.0237 20.1359 21.0237 20.2839 21.1716L21.3554 22.2431C21.5033 22.3912 21.5033 22.6311 21.3554 22.779C21.2074 22.9271 20.9674 22.9271 20.8195 22.779L19.748 21.7075C19.6 21.5596 19.6 21.3196 19.748 21.1716Z" fill="white"/>
<path d="M23.4043 20.2002C23.2563 20.0522 23.0165 20.0522 22.8684 20.2002L20.8256 22.2431C20.6776 22.3911 20.6776 22.631 20.8256 22.779C20.9736 22.927 21.2135 22.927 21.3615 22.779L23.4043 20.7362C23.5524 20.5881 23.5524 20.3483 23.4043 20.2002Z" fill="white"/>
</svg>
