<svg width="34" height="34" viewBox="0 0 34 34" fill="none" xmlns="http://www.w3.org/2000/svg">
<rect width="34" height="34" rx="4" fill="#87DEAC"/>
<path d="M17.2154 8C16.9815 8 16.7727 8.10728 16.6355 8.27532L16.5785 8.31844C14.4387 7.66979 12.0179 8.18619 10.3256 9.86765C8.82031 11.3633 8.24276 13.4317 8.59295 15.3669L8.57796 15.3815L7.62288 16.3306C6.79237 17.1557 6.79237 18.4936 7.62288 19.3188C8.11078 19.8036 8.77679 20.0036 9.41162 19.9188C9.50517 20.2643 9.6884 20.5909 9.96131 20.862C10.3323 21.2306 10.8061 21.4345 11.291 21.4739C11.3305 21.9557 11.5358 22.4267 11.9068 22.7953C12.2949 23.181 12.7956 23.3863 13.3037 23.4116C13.3292 23.9164 13.5359 24.4137 13.9239 24.7992C14.6825 25.553 15.8718 25.6183 16.7049 24.9949L17.0906 25.3781C17.9252 26.2073 19.2781 26.2073 20.1127 25.3781C20.4823 25.0108 20.6882 24.5427 20.7304 24.0629C21.2122 24.0219 21.6827 23.8183 22.0516 23.4517C22.4215 23.0843 22.6266 22.6154 22.6672 22.1354C23.1428 22.0909 23.6062 21.8878 23.9705 21.5257C24.2561 21.2421 24.4434 20.8977 24.5327 20.5345C25.158 20.6087 25.8101 20.4074 26.2899 19.9306C27.1205 19.1054 27.1205 17.7676 26.2899 16.9424L25.4583 16.116L25.6292 15.4509C26.0007 14.0047 25.8139 12.4729 25.1058 11.1573C24.0606 9.21504 22.0258 8.005 19.8139 8.005H18.2106C18.1423 8.00168 18.0736 8 18.0046 8H17.2154ZM20.1333 12.9344L23.5895 16.3685L23.5934 16.3726L23.6067 16.3862L25.2281 17.9973C25.4723 18.2399 25.4723 18.6331 25.2281 18.8757C24.9841 19.1182 24.5883 19.1182 24.3442 18.8757L22.7227 17.2645C22.4295 16.9732 21.9541 16.9732 21.661 17.2645L21.6447 17.2806C21.3514 17.572 21.3514 18.0443 21.6447 18.3356L22.9088 19.5916C23.153 19.8344 23.153 20.228 22.9088 20.4707C22.6861 20.6919 22.336 20.7119 22.0915 20.5291C21.7915 20.3048 21.3708 20.3352 21.1066 20.6004C20.8424 20.8656 20.816 21.2839 21.0448 21.5797C21.2328 21.8229 21.2141 22.1739 20.9899 22.3968C20.7638 22.6214 20.4067 22.6383 20.1617 22.4467C19.8637 22.2136 19.4373 22.238 19.1682 22.5037C18.899 22.7694 18.8717 23.1929 19.1045 23.4906C19.2978 23.7377 19.2795 24.096 19.0509 24.3232C18.8028 24.5696 18.4005 24.5696 18.1524 24.3232L17.7815 23.9546L17.8864 23.8502C18.717 23.0251 18.717 21.6872 17.8864 20.862C17.4984 20.4764 16.9977 20.271 16.4896 20.2457C16.4641 19.741 16.2574 19.2436 15.8694 18.8581C15.4984 18.4895 15.0245 18.2856 14.5397 18.2462C14.5002 17.7644 14.2949 17.2934 13.9239 16.9247C13.436 16.44 12.77 16.24 12.1352 16.3248C12.0416 15.9793 11.8584 15.6528 11.5855 15.3815C11.1551 14.9539 10.5861 14.7479 10.0221 14.7635C9.87564 13.3937 10.3307 11.9725 11.3874 10.9226C12.3695 9.9468 13.6744 9.48734 14.9606 9.54423L13.4664 10.6763C12.4447 11.4504 12.2479 12.9045 13.027 13.9223C13.8044 14.9377 15.2594 15.1347 16.2787 14.3624L18.1634 12.9344H20.1333ZM14.3703 11.8693L17.5018 9.49676H18.0046C18.054 9.49676 18.103 9.49808 18.1516 9.50068C18.1648 9.5014 18.1782 9.50176 18.1916 9.50176H19.8139C21.4785 9.50176 23.0052 10.4124 23.7879 11.8666C24.2815 12.7839 24.4364 13.8408 24.2307 14.8553L21.0256 11.6658C20.8846 11.52 20.6904 11.4377 20.4876 11.4377H17.912C17.7487 11.4377 17.5901 11.491 17.46 11.5896L15.3749 13.1694C15.0121 13.4442 14.4922 13.3738 14.2155 13.0124C13.9407 12.6534 14.0098 12.1424 14.3703 11.8693ZM11.0231 19.8071C10.8555 19.6405 10.803 19.4031 10.8654 19.1921C10.894 19.0957 10.9465 19.0048 11.0231 18.9287L11.9782 17.9797C12.2223 17.7371 12.618 17.7371 12.8622 17.9797C13.1035 18.2195 13.1062 18.6066 12.8704 18.8496L12.8619 18.8581L11.9068 19.8071L11.8986 19.8153C11.8238 19.8869 11.7355 19.9364 11.642 19.9636C11.4296 20.0257 11.1906 19.9735 11.0231 19.8071ZM10.5329 16.4458C10.6082 16.5238 10.659 16.6166 10.6854 16.7144C10.7413 16.9217 10.6874 17.1522 10.5237 17.3149L9.56862 18.2639C9.32451 18.5064 8.92874 18.5064 8.68464 18.2639C8.44053 18.0213 8.44053 17.6281 8.68464 17.3855L9.63972 16.4366C9.88383 16.194 10.2796 16.194 10.5237 16.4366L10.5329 16.4458ZM15.8696 23.7442C15.793 23.8205 15.7013 23.8728 15.604 23.9011C15.3919 23.9629 15.1531 23.9106 14.9856 23.7442C14.8183 23.5779 14.7657 23.3407 14.8279 23.1299C14.8564 23.0333 14.909 22.9422 14.9856 22.8659L15.9408 21.917C16.1848 21.6744 16.5807 21.6744 16.8247 21.917C17.0688 22.1595 17.0688 22.5527 16.8247 22.7953L15.8696 23.7442ZM13.8526 21.7404C13.7761 21.8164 13.6846 21.8686 13.5877 21.8969C13.3753 21.9591 13.1362 21.9069 12.9686 21.7404C12.801 21.5738 12.7484 21.3363 12.811 21.1252C12.8385 21.0324 12.8883 20.9447 12.9603 20.8704L12.9688 20.862L13.9239 19.913L13.9321 19.9047C14.1768 19.6706 14.5663 19.6734 14.8076 19.913C15.0518 20.1556 15.0518 20.5489 14.8076 20.7914L13.8526 21.7404Z" fill="white"/>
</svg>
