<svg width="27" height="26" viewBox="0 0 27 26" fill="none" xmlns="http://www.w3.org/2000/svg">
<path opacity="0.4" d="M13.8936 6.76C12.6594 6.76 11.453 7.12597 10.4268 7.81163C9.40063 8.49729 8.60084 9.47184 8.12855 10.6121C7.65626 11.7523 7.53268 13.0069 7.77345 14.2174C8.01423 15.4278 8.60853 16.5397 9.48121 17.4123C10.3539 18.285 11.4657 18.8793 12.6762 19.1201C13.8866 19.3609 15.1413 19.2373 16.2815 18.765C17.4217 18.2927 18.3963 17.4929 19.0819 16.4668C19.7676 15.4406 20.1336 14.2342 20.1336 13C20.1336 11.345 19.4761 9.75788 18.3059 8.58765C17.1357 7.41743 15.5485 6.76 13.8936 6.76ZM13.8936 17.16C13.0708 17.16 12.2665 16.916 11.5824 16.4589C10.8983 16.0018 10.3651 15.3521 10.0502 14.592C9.73535 13.8318 9.65297 12.9954 9.81349 12.1884C9.974 11.3815 10.3702 10.6402 10.952 10.0584C11.5338 9.47665 12.275 9.08045 13.082 8.91993C13.8889 8.75942 14.7254 8.8418 15.4855 9.15666C16.2457 9.47152 16.8954 10.0047 17.3525 10.6888C17.8096 11.3729 18.0536 12.1772 18.0536 13C18.0501 14.1022 17.6107 15.1584 16.8313 15.9378C16.0519 16.7172 14.9958 17.1566 13.8936 17.16ZM19.6136 0H8.17355C6.24278 0 4.39108 0.766998 3.02582 2.13226C1.66055 3.49753 0.893555 5.34922 0.893555 7.28V18.72C0.893555 20.6508 1.66055 22.5025 3.02582 23.8677C4.39108 25.233 6.24278 26 8.17355 26H19.6136C21.5443 26 23.396 25.233 24.7613 23.8677C26.1266 22.5025 26.8936 20.6508 26.8936 18.72V7.28C26.8936 5.34922 26.1266 3.49753 24.7613 2.13226C23.396 0.766998 21.5443 0 19.6136 0ZM24.8136 18.72C24.8136 19.4029 24.6791 20.0791 24.4177 20.71C24.1564 21.3408 23.7734 21.9141 23.2905 22.397C22.8076 22.8798 22.2344 23.2628 21.6035 23.5242C20.9726 23.7855 20.2964 23.92 19.6136 23.92H8.17355C7.49068 23.92 6.81449 23.7855 6.1836 23.5242C5.55271 23.2628 4.97946 22.8798 4.4966 22.397C4.01373 21.9141 3.63071 21.3408 3.36938 20.71C3.10806 20.0791 2.97355 19.4029 2.97355 18.72V7.28C2.97355 5.90087 3.52141 4.57823 4.4966 3.60304C5.47179 2.62786 6.79443 2.08 8.17355 2.08H19.6136C20.2964 2.08 20.9726 2.2145 21.6035 2.47583C22.2344 2.73715 22.8076 3.12018 23.2905 3.60304C23.7734 4.08591 24.1564 4.65915 24.4177 5.29005C24.6791 5.92094 24.8136 6.59713 24.8136 7.28V18.72ZM22.2136 6.24C22.2136 6.54854 22.1221 6.85015 21.9506 7.10669C21.7792 7.36323 21.5356 7.56318 21.2505 7.68125C20.9655 7.79932 20.6518 7.83022 20.3492 7.77002C20.0466 7.70983 19.7686 7.56126 19.5505 7.34309C19.3323 7.12492 19.1837 6.84695 19.1235 6.54434C19.0633 6.24173 19.0942 5.92807 19.2123 5.64301C19.3304 5.35796 19.5303 5.11432 19.7869 4.94291C20.0434 4.77149 20.345 4.68 20.6536 4.68C21.0673 4.68 21.4641 4.84436 21.7566 5.13691C22.0492 5.42947 22.2136 5.82626 22.2136 6.24Z" fill="#2AAE9B"/>
</svg>
