<svg width="33" height="17" viewBox="0 0 33 17" fill="none" xmlns="http://www.w3.org/2000/svg">
<path d="M32.3704 10.5699V12.842C32.3704 13.145 32.2532 13.4311 32.0438 13.6415L29.2468 16.4523C29.0374 16.6627 28.7527 16.7805 28.4512 16.7805H18.1674V13.4816H27.6807C28.3005 13.4816 28.8113 12.9767 28.8113 12.3455V11.2768C28.8113 10.654 28.3088 10.1407 27.6807 10.1407H21.6512C21.3497 10.1407 21.065 10.0229 20.8556 9.81247L18.0585 7.00169C17.8492 6.78289 17.7319 6.49676 17.7319 6.20222V3.93845C17.7319 3.63549 17.8492 3.34937 18.0585 3.13898L20.8556 0.328206C21.065 0.117819 21.3581 0 21.6512 0H31.9266V3.29887H22.4132C21.7935 3.29887 21.2827 3.8038 21.2827 4.43496V5.49532C21.2827 6.12648 21.7852 6.63141 22.4132 6.63141H28.4428C28.7443 6.63141 29.029 6.74923 29.2384 6.95961L32.0354 9.77039C32.2532 9.98078 32.3704 10.2669 32.3704 10.5699Z" fill="#5F10FF"/>
<path d="M9.9823 9.4001L16.305 16.7889H11.8247L7.37786 11.6975C5.05815 14.542 3.45864 16.7889 3.45864 16.7889H0V0H3.45864V11.4451L12.4276 0H16.7321C15.5932 1.43063 12.6872 5.14187 9.96556 8.50806C9.7562 8.76053 9.76457 9.13922 9.9823 9.4001Z" fill="#5F10FF"/>
</svg>
