<svg width="152" height="78" viewBox="0 0 152 78" fill="none" xmlns="http://www.w3.org/2000/svg">
<path d="M56.8461 60.6414C57.5883 60.6414 58.2283 60.3826 58.6641 59.8924L58.2215 59.4634C57.8539 59.8516 57.4045 60.0354 56.8802 60.0354C55.8044 60.0354 55.0077 59.2592 55.0077 58.2038C55.0077 57.1484 55.8044 56.3722 56.8802 56.3722C57.4045 56.3722 57.8539 56.5492 58.2215 56.9373L58.6641 56.5084C58.2283 56.0181 57.5883 55.7662 56.8529 55.7662C55.4026 55.7662 54.3268 56.7943 54.3268 58.2038C54.3268 59.6132 55.4026 60.6414 56.8461 60.6414ZM63.5642 60.5869L62.4339 58.9868C63.1012 58.7485 63.4825 58.2174 63.4825 57.482C63.4825 56.4471 62.7335 55.8207 61.4943 55.8207H59.6354V60.5869H60.3163V59.1366H61.4943C61.5964 59.1366 61.6986 59.1298 61.7939 59.123L62.822 60.5869H63.5642ZM61.4739 58.5579H60.3163V56.413H61.4739C62.3454 56.413 62.8016 56.8012 62.8016 57.482C62.8016 58.1629 62.3454 58.5579 61.4739 58.5579ZM66.7342 60.6414C68.1845 60.6414 69.2603 59.6064 69.2603 58.2038C69.2603 56.8012 68.1845 55.7662 66.7342 55.7662C65.2703 55.7662 64.1944 56.808 64.1944 58.2038C64.1944 59.5996 65.2703 60.6414 66.7342 60.6414ZM66.7342 60.0354C65.6652 60.0354 64.8753 59.2592 64.8753 58.2038C64.8753 57.1484 65.6652 56.3722 66.7342 56.3722C67.7896 56.3722 68.5794 57.1484 68.5794 58.2038C68.5794 59.2592 67.7896 60.0354 66.7342 60.0354ZM70.0207 59.0004H71.8523V58.4353H70.0207V59.0004ZM74.8129 55.8207H72.9541V60.5869H73.635V59.1434H74.8129C76.0521 59.1434 76.8011 58.517 76.8011 57.482C76.8011 56.4471 76.0521 55.8207 74.8129 55.8207ZM74.7925 58.551H73.635V56.413H74.7925C75.664 56.413 76.1202 56.8012 76.1202 57.482C76.1202 58.1629 75.664 58.551 74.7925 58.551ZM78.4823 59.9945V58.4557H80.8723V57.877H78.4823V56.413H81.165V55.8207H77.8014V60.5869H81.2604V59.9945H78.4823ZM83.531 55.8207V56.413H84.6068V60.5869H85.2809V55.8207H83.531ZM87.229 59.9945L88.6861 58.5919C89.333 57.9723 89.4692 57.5569 89.4692 57.0939C89.4692 56.2769 88.8291 55.7662 87.835 55.7662C87.0928 55.7662 86.4596 56.0317 86.0919 56.4879L86.5549 56.8897C86.8477 56.5356 87.2631 56.3722 87.7737 56.3722C88.441 56.3722 88.7883 56.6718 88.7883 57.162C88.7883 57.4616 88.6929 57.7612 88.1891 58.2515L86.2485 60.1239V60.5869H89.6734V59.9945H87.229ZM92.058 57.8225L93.3041 56.2837V55.8207H90.1584V56.413H92.453L91.2546 57.8838V58.3604H91.6359C92.453 58.3604 92.8138 58.6872 92.8138 59.1911C92.8138 59.7086 92.4053 60.0354 91.6904 60.0354C91.1048 60.0354 90.5737 59.8243 90.2537 59.5247L89.9405 60.0626C90.3422 60.4235 91.0095 60.6414 91.6904 60.6414C92.9024 60.6414 93.4947 59.9877 93.4947 59.1843C93.4947 58.4489 93.0113 57.911 92.058 57.8225ZM96.1861 57.6931C95.5937 57.6931 95.0898 57.911 94.8175 58.3195C94.8107 58.2583 94.8107 58.2038 94.8107 58.1493C94.8107 56.9578 95.4303 56.3518 96.3971 56.3518C96.7376 56.3518 97.0644 56.413 97.3095 56.5765L97.5683 56.0454C97.2619 55.8547 96.8329 55.7662 96.3835 55.7662C95.049 55.7662 94.1298 56.6377 94.1298 58.2651C94.1298 59.7835 94.8515 60.6414 96.1316 60.6414C97.078 60.6414 97.8202 60.0558 97.8202 59.1366C97.8202 58.2583 97.1325 57.6931 96.1861 57.6931ZM96.1044 60.0899C95.369 60.0899 94.9741 59.6609 94.9741 59.1707C94.9741 58.6464 95.4235 58.2446 96.0703 58.2446C96.7376 58.2446 97.1597 58.6055 97.1597 59.1638C97.1597 59.729 96.724 60.0899 96.1044 60.0899ZM99.2377 59.9945L100.695 58.5919C101.342 57.9723 101.478 57.5569 101.478 57.0939C101.478 56.2769 100.838 55.7662 99.8437 55.7662C99.1016 55.7662 98.4683 56.0317 98.1006 56.4879L98.5636 56.8897C98.8564 56.5356 99.2718 56.3722 99.7824 56.3722C100.45 56.3722 100.797 56.6718 100.797 57.162C100.797 57.4616 100.702 57.7612 100.198 58.2515L98.2572 60.1239V60.5869H101.682V59.9945H99.2377Z" fill="#28AC9B"/>
<path d="M55.7234 16V4.66693H60.4995C61.7083 4.66693 62.7715 4.90438 63.6889 5.37929C64.6172 5.8542 65.3349 6.518 65.8422 7.37067C66.3603 8.22335 66.6193 9.21095 66.6193 10.3335C66.6193 11.456 66.3603 12.4436 65.8422 13.2963C65.3349 14.1489 64.6172 14.8127 63.6889 15.2876C62.7715 15.7625 61.7083 16 60.4995 16H55.7234ZM57.3424 14.5915H60.4023C61.3414 14.5915 62.1509 14.4134 62.8309 14.0572C63.5216 13.701 64.0559 13.2045 64.4337 12.5677C64.8114 11.9201 65.0003 11.1753 65.0003 10.3335C65.0003 9.48078 64.8114 8.73604 64.4337 8.09923C64.0559 7.46242 63.5216 6.96592 62.8309 6.60974C62.1509 6.25356 61.3414 6.07547 60.4023 6.07547H57.3424V14.5915ZM68.8725 16V7.41924H70.362V9.75062L70.2163 9.16778C70.4538 8.57414 70.8531 8.12082 71.4144 7.80781C71.9756 7.4948 72.6664 7.33829 73.4867 7.33829V8.84397C73.422 8.83318 73.3572 8.82778 73.2924 8.82778C73.2385 8.82778 73.1845 8.82778 73.1305 8.82778C72.2995 8.82778 71.6411 9.07603 71.1553 9.57253C70.6696 10.069 70.4268 10.7868 70.4268 11.7258V16H68.8725ZM80.0965 16V14.1867L80.0155 13.8467V10.7544C80.0155 10.096 79.8212 9.58872 79.4327 9.23254C79.0549 8.86556 78.4828 8.68207 77.7165 8.68207C77.2092 8.68207 76.7127 8.76842 76.227 8.94111C75.7413 9.10302 75.3312 9.32428 74.9966 9.60491L74.349 8.43922C74.7915 8.08304 75.3204 7.8132 75.9356 7.62972C76.5616 7.43543 77.2146 7.33829 77.8946 7.33829C79.0711 7.33829 79.9777 7.62432 80.6145 8.19637C81.2514 8.76842 81.5698 9.64269 81.5698 10.8192V16H80.0965ZM77.2794 16.0971C76.6426 16.0971 76.0813 15.9892 75.5956 15.7733C75.1207 15.5575 74.7537 15.2607 74.4947 14.8829C74.2356 14.4943 74.1061 14.0572 74.1061 13.5715C74.1061 13.1074 74.2141 12.6864 74.4299 12.3087C74.6566 11.9309 75.0182 11.6287 75.5147 11.402C76.022 11.1753 76.7019 11.062 77.5546 11.062H80.2746V12.1791H77.6194C76.8423 12.1791 76.3188 12.3087 76.0489 12.5677C75.7791 12.8267 75.6442 13.1397 75.6442 13.5067C75.6442 13.9277 75.8115 14.2677 76.1461 14.5267C76.4807 14.7749 76.9448 14.8991 77.5384 14.8991C78.1213 14.8991 78.6286 14.7696 79.0603 14.5105C79.5028 14.2515 79.8212 13.8737 80.0155 13.3772L80.3231 14.4458C80.118 14.953 79.7565 15.3578 79.2384 15.66C78.7203 15.9514 78.0673 16.0971 77.2794 16.0971ZM84.8184 16.0971C84.5162 16.0971 84.2571 15.9946 84.0413 15.7895C83.8254 15.5737 83.7175 15.3038 83.7175 14.98C83.7175 14.6562 83.8254 14.3918 84.0413 14.1867C84.2571 13.9816 84.5162 13.8791 84.8184 13.8791C85.1098 13.8791 85.3581 13.9816 85.5632 14.1867C85.779 14.3918 85.887 14.6562 85.887 14.98C85.887 15.3038 85.779 15.5737 85.5632 15.7895C85.3581 15.9946 85.1098 16.0971 84.8184 16.0971ZM94.1458 16.1295C93.4766 16.1295 92.8506 15.9892 92.2677 15.7086C91.6849 15.4279 91.21 15.0232 90.843 14.4943L91.782 13.3934C92.0951 13.8251 92.4458 14.1597 92.8344 14.3972C93.2338 14.6238 93.6709 14.7372 94.1458 14.7372C95.441 14.7372 96.0886 13.9708 96.0886 12.4382V6.07547H91.9925V4.66693H97.6914V12.3572C97.6914 13.6201 97.3892 14.5645 96.7848 15.1905C96.1912 15.8165 95.3115 16.1295 94.1458 16.1295ZM104.438 16.0971C103.574 16.0971 102.808 15.9083 102.139 15.5305C101.47 15.1527 100.941 14.6346 100.552 13.9762C100.164 13.307 99.9693 12.5515 99.9693 11.7096C99.9693 10.8569 100.164 10.1014 100.552 9.44301C100.941 8.78461 101.47 8.27192 102.139 7.90495C102.808 7.52718 103.574 7.33829 104.438 7.33829C105.29 7.33829 106.051 7.52718 106.721 7.90495C107.401 8.27192 107.929 8.78461 108.307 9.44301C108.696 10.0906 108.89 10.8461 108.89 11.7096C108.89 12.5623 108.696 13.3178 108.307 13.9762C107.929 14.6346 107.401 15.1527 106.721 15.5305C106.051 15.9083 105.29 16.0971 104.438 16.0971ZM104.438 14.7372C104.988 14.7372 105.479 14.613 105.911 14.3648C106.354 14.1166 106.699 13.7658 106.947 13.3124C107.195 12.8483 107.32 12.3141 107.32 11.7096C107.32 11.0944 107.195 10.5655 106.947 10.123C106.699 9.66967 106.354 9.31888 105.911 9.07064C105.479 8.82239 104.988 8.69826 104.438 8.69826C103.887 8.69826 103.396 8.82239 102.964 9.07064C102.533 9.31888 102.187 9.66967 101.928 10.123C101.669 10.5655 101.54 11.0944 101.54 11.7096C101.54 12.3141 101.669 12.8483 101.928 13.3124C102.187 13.7658 102.533 14.1166 102.964 14.3648C103.396 14.613 103.887 14.7372 104.438 14.7372ZM114.86 16.0971C113.943 16.0971 113.133 15.9083 112.432 15.5305C111.741 15.1527 111.201 14.6346 110.813 13.9762C110.435 13.3178 110.246 12.5623 110.246 11.7096C110.246 10.8569 110.43 10.1014 110.797 9.44301C111.174 8.78461 111.687 8.27192 112.335 7.90495C112.993 7.52718 113.732 7.33829 114.553 7.33829C115.384 7.33829 116.118 7.52178 116.755 7.88876C117.391 8.25573 117.888 8.77382 118.244 9.44301C118.611 10.1014 118.795 10.8731 118.795 11.7582C118.795 11.823 118.789 11.8985 118.778 11.9849C118.778 12.0712 118.773 12.1522 118.762 12.2277H111.46V11.1106H117.953L117.321 11.4992C117.332 10.9487 117.219 10.4576 116.981 10.0259C116.744 9.59412 116.415 9.25952 115.994 9.02206C115.584 8.77382 115.103 8.64969 114.553 8.64969C114.013 8.64969 113.533 8.77382 113.112 9.02206C112.691 9.25952 112.362 9.59951 112.124 10.042C111.887 10.4738 111.768 10.9703 111.768 11.5315V11.7906C111.768 12.3626 111.898 12.8753 112.157 13.3286C112.426 13.7712 112.799 14.1166 113.274 14.3648C113.749 14.613 114.294 14.7372 114.909 14.7372C115.416 14.7372 115.875 14.6508 116.285 14.4781C116.706 14.3054 117.073 14.0464 117.386 13.701L118.244 14.7048C117.856 15.1581 117.37 15.5035 116.787 15.741C116.215 15.9784 115.573 16.0971 114.86 16.0971ZM120.953 16V3.98694H122.507V16H120.953ZM136.209 7.33829C136.899 7.33829 137.509 7.47321 138.038 7.74305C138.567 8.01288 138.977 8.42303 139.269 8.97349C139.571 9.52396 139.722 10.2201 139.722 11.062V16H138.168V11.2401C138.168 10.409 137.973 9.783 137.585 9.36206C137.196 8.94111 136.651 8.73064 135.95 8.73064C135.432 8.73064 134.978 8.83858 134.59 9.05445C134.201 9.27031 133.899 9.58872 133.683 10.0097C133.478 10.4306 133.375 10.9541 133.375 11.5801V16H131.821V11.2401C131.821 10.409 131.627 9.783 131.238 9.36206C130.861 8.94111 130.316 8.73064 129.603 8.73064C129.096 8.73064 128.648 8.83858 128.259 9.05445C127.871 9.27031 127.569 9.58872 127.353 10.0097C127.137 10.4306 127.029 10.9541 127.029 11.5801V16H125.475V7.41924H126.964V9.70205L126.721 9.11921C126.991 8.55795 127.407 8.12082 127.968 7.80781C128.529 7.4948 129.182 7.33829 129.927 7.33829C130.747 7.33829 131.454 7.54337 132.048 7.95352C132.641 8.35287 133.03 8.9627 133.214 9.783L132.582 9.52396C132.841 8.86556 133.294 8.33668 133.942 7.93733C134.59 7.53797 135.345 7.33829 136.209 7.33829ZM147.908 16V14.1867L147.827 13.8467V10.7544C147.827 10.096 147.633 9.58872 147.245 9.23254C146.867 8.86556 146.295 8.68207 145.528 8.68207C145.021 8.68207 144.525 8.76842 144.039 8.94111C143.553 9.10302 143.143 9.32428 142.808 9.60491L142.161 8.43922C142.603 8.08304 143.132 7.8132 143.747 7.62972C144.373 7.43543 145.026 7.33829 145.706 7.33829C146.883 7.33829 147.79 7.62432 148.426 8.19637C149.063 8.76842 149.382 9.64269 149.382 10.8192V16H147.908ZM145.091 16.0971C144.454 16.0971 143.893 15.9892 143.407 15.7733C142.933 15.5575 142.566 15.2607 142.307 14.8829C142.048 14.4943 141.918 14.0572 141.918 13.5715C141.918 13.1074 142.026 12.6864 142.242 12.3087C142.468 11.9309 142.83 11.6287 143.327 11.402C143.834 11.1753 144.514 11.062 145.366 11.062H148.086V12.1791H145.431C144.654 12.1791 144.131 12.3087 143.861 12.5677C143.591 12.8267 143.456 13.1397 143.456 13.5067C143.456 13.9277 143.623 14.2677 143.958 14.5267C144.293 14.7749 144.757 14.8991 145.35 14.8991C145.933 14.8991 146.44 14.7696 146.872 14.5105C147.315 14.2515 147.633 13.8737 147.827 13.3772L148.135 14.4458C147.93 14.953 147.568 15.3578 147.05 15.66C146.532 15.9514 145.879 16.0971 145.091 16.0971ZM54.0072 36L59.1395 24.6669H60.7423L65.8908 36H64.1908L59.609 25.5736H60.2566L55.6748 36H54.0072ZM56.1929 33.1667L56.63 31.8715H63.0089L63.4785 33.1667H56.1929ZM71.9365 27.3383C72.6381 27.3383 73.2533 27.4732 73.7822 27.743C74.3219 28.0129 74.7428 28.423 75.045 28.9735C75.3472 29.524 75.4983 30.2201 75.4983 31.062V36H73.9441V31.2401C73.9441 30.409 73.739 29.783 73.3289 29.3621C72.9295 28.9411 72.3629 28.7306 71.6289 28.7306C71.0784 28.7306 70.5981 28.8386 70.188 29.0544C69.7778 29.2703 69.4594 29.5887 69.2328 30.0097C69.0169 30.4306 68.909 30.9541 68.909 31.5801V36H67.3547V27.4192H68.8442V29.7344L68.6014 29.1192C68.882 28.5579 69.3137 28.1208 69.8966 27.8078C70.4794 27.4948 71.1594 27.3383 71.9365 27.3383ZM81.9204 36.0971C81.0893 36.0971 80.3445 35.9137 79.6861 35.5467C79.0385 35.1797 78.5259 34.667 78.1481 34.0086C77.7703 33.3502 77.5814 32.5839 77.5814 31.7096C77.5814 30.8354 77.7703 30.0744 78.1481 29.4268C78.5259 28.7684 79.0385 28.2557 79.6861 27.8888C80.3445 27.5218 81.0893 27.3383 81.9204 27.3383C82.6435 27.3383 83.2965 27.5002 83.8794 27.824C84.4622 28.1478 84.9263 28.6335 85.2717 29.2811C85.6279 29.9287 85.806 30.7382 85.806 31.7096C85.806 32.681 85.6333 33.4905 85.2879 34.1381C84.9533 34.7857 84.4946 35.2768 83.9118 35.6114C83.3289 35.9352 82.6651 36.0971 81.9204 36.0971ZM82.0499 34.7372C82.5896 34.7372 83.0753 34.613 83.507 34.3648C83.9495 34.1166 84.2949 33.7658 84.5432 33.3124C84.8022 32.8483 84.9317 32.3141 84.9317 31.7096C84.9317 31.0944 84.8022 30.5655 84.5432 30.123C84.2949 29.6697 83.9495 29.3189 83.507 29.0706C83.0753 28.8224 82.5896 28.6983 82.0499 28.6983C81.4994 28.6983 81.0083 28.8224 80.5766 29.0706C80.1449 29.3189 79.7995 29.6697 79.5404 30.123C79.2814 30.5655 79.1519 31.0944 79.1519 31.7096C79.1519 32.3141 79.2814 32.8483 79.5404 33.3124C79.7995 33.7658 80.1449 34.1166 80.5766 34.3648C81.0083 34.613 81.4994 34.7372 82.0499 34.7372ZM84.9803 36V33.6848L85.0774 31.6934L84.9155 29.702V23.9869H86.4698V36H84.9803ZM89.4106 36V27.4192H90.9001V29.7506L90.7544 29.1678C90.9918 28.5741 91.3912 28.1208 91.9524 27.8078C92.5137 27.4948 93.2045 27.3383 94.0248 27.3383V28.844C93.96 28.8332 93.8952 28.8278 93.8305 28.8278C93.7765 28.8278 93.7225 28.8278 93.6686 28.8278C92.8375 28.8278 92.1791 29.076 91.6934 29.5725C91.2077 30.069 90.9648 30.7868 90.9648 31.7258V36H89.4106ZM100.634 36V34.1867L100.554 33.8467V30.7544C100.554 30.096 100.359 29.5887 99.9707 29.2325C99.5929 28.8656 99.0209 28.6821 98.2545 28.6821C97.7473 28.6821 97.2508 28.7684 96.7651 28.9411C96.2794 29.103 95.8692 29.3243 95.5346 29.6049L94.887 28.4392C95.3295 28.083 95.8584 27.8132 96.4736 27.6297C97.0997 27.4354 97.7527 27.3383 98.4326 27.3383C99.6091 27.3383 100.516 27.6243 101.153 28.1964C101.789 28.7684 102.108 29.6427 102.108 30.8192V36H100.634ZM97.8174 36.0971C97.1806 36.0971 96.6193 35.9892 96.1336 35.7733C95.6587 35.5575 95.2918 35.2607 95.0327 34.8829C94.7737 34.4943 94.6442 34.0572 94.6442 33.5715C94.6442 33.1074 94.7521 32.6864 94.968 32.3087C95.1946 31.9309 95.5562 31.6287 96.0527 31.402C96.56 31.1753 97.24 31.062 98.0926 31.062H100.813V32.1791H98.1574C97.3803 32.1791 96.8568 32.3087 96.587 32.5677C96.3171 32.8267 96.1822 33.1397 96.1822 33.5067C96.1822 33.9277 96.3495 34.2677 96.6841 34.5267C97.0187 34.7749 97.4828 34.8991 98.0765 34.8991C98.6593 34.8991 99.1666 34.7696 99.5983 34.5105C100.041 34.2515 100.359 33.8737 100.554 33.3772L100.861 34.4458C100.656 34.953 100.294 35.3578 99.7764 35.66C99.2583 35.9514 98.6053 36.0971 97.8174 36.0971ZM108.53 36.0971C107.699 36.0971 106.954 35.9137 106.295 35.5467C105.648 35.1797 105.135 34.667 104.757 34.0086C104.38 33.3502 104.191 32.5839 104.191 31.7096C104.191 30.8354 104.38 30.0744 104.757 29.4268C105.135 28.7684 105.648 28.2557 106.295 27.8888C106.954 27.5218 107.699 27.3383 108.53 27.3383C109.253 27.3383 109.906 27.5002 110.489 27.824C111.072 28.1478 111.536 28.6335 111.881 29.2811C112.237 29.9287 112.415 30.7382 112.415 31.7096C112.415 32.681 112.243 33.4905 111.897 34.1381C111.563 34.7857 111.104 35.2768 110.521 35.6114C109.938 35.9352 109.274 36.0971 108.53 36.0971ZM108.659 34.7372C109.199 34.7372 109.685 34.613 110.116 34.3648C110.559 34.1166 110.904 33.7658 111.152 33.3124C111.412 32.8483 111.541 32.3141 111.541 31.7096C111.541 31.0944 111.412 30.5655 111.152 30.123C110.904 29.6697 110.559 29.3189 110.116 29.0706C109.685 28.8224 109.199 28.6983 108.659 28.6983C108.109 28.6983 107.618 28.8224 107.186 29.0706C106.754 29.3189 106.409 29.6697 106.15 30.123C105.891 30.5655 105.761 31.0944 105.761 31.7096C105.761 32.3141 105.891 32.8483 106.15 33.3124C106.409 33.7658 106.754 34.1166 107.186 34.3648C107.618 34.613 108.109 34.7372 108.659 34.7372ZM111.59 36V33.6848L111.687 31.6934L111.525 29.702V23.9869H113.079V36H111.59ZM119.841 36.0971C118.923 36.0971 118.114 35.9083 117.412 35.5305C116.721 35.1527 116.182 34.6346 115.793 33.9762C115.415 33.3178 115.227 32.5623 115.227 31.7096C115.227 30.8569 115.41 30.1014 115.777 29.443C116.155 28.7846 116.668 28.2719 117.315 27.9049C117.974 27.5272 118.713 27.3383 119.533 27.3383C120.364 27.3383 121.098 27.5218 121.735 27.8888C122.372 28.2557 122.868 28.7738 123.224 29.443C123.591 30.1014 123.775 30.8731 123.775 31.7582C123.775 31.823 123.77 31.8985 123.759 31.9849C123.759 32.0712 123.753 32.1522 123.743 32.2277H116.441V31.1106H122.933L122.302 31.4992C122.312 30.9487 122.199 30.4576 121.962 30.0259C121.724 29.5941 121.395 29.2595 120.974 29.0221C120.564 28.7738 120.084 28.6497 119.533 28.6497C118.993 28.6497 118.513 28.7738 118.092 29.0221C117.671 29.2595 117.342 29.5995 117.105 30.042C116.867 30.4738 116.748 30.9703 116.748 31.5315V31.7906C116.748 32.3626 116.878 32.8753 117.137 33.3286C117.407 33.7712 117.779 34.1166 118.254 34.3648C118.729 34.613 119.274 34.7372 119.889 34.7372C120.397 34.7372 120.855 34.6508 121.265 34.4781C121.686 34.3054 122.053 34.0464 122.366 33.701L123.224 34.7048C122.836 35.1581 122.35 35.5035 121.767 35.741C121.195 35.9784 120.553 36.0971 119.841 36.0971Z" fill="#676767"/>
<path d="M41.3776 0.0141934V49.6957C41.3776 65.3241 28.7017 78 13.0733 78H7.72193C6.48699 72.5492 5.43658 66.3035 5.80564 64.1033C6.48699 59.9869 11.7532 59.0784 16.551 59.192C21.3489 59.3055 21.6895 55.1891 21.6895 55.1891C21.6895 55.1891 22.7115 45.0114 22.7115 42.8397C22.7115 40.6679 24.7698 40.4408 24.7698 40.4408L26.4448 39.802C27.5236 39.3903 27.8642 38.7658 27.2255 37.8147C25.6782 35.5436 23.1658 31.7536 21.9166 30.036C20.4404 28.0062 20.6533 23.7336 20.6533 23.7336C20.6533 23.7336 22.5412 15.529 15.7277 8.07679C11.5545 3.09445 5.53594 0.894267 0 0H41.3776V0.0141934Z" fill="url(#paint0_linear_1_141)"/>
<path d="M59.4907 47.7946C60.015 47.5372 60.3868 47.032 60.3868 46.3075C60.3868 45.2303 59.5288 44.5821 57.9941 44.5821H55.0009V51.2549H58.1848C59.872 51.2549 60.7395 50.5971 60.7395 49.4532C60.7395 48.5667 60.2438 48.0043 59.4907 47.7946ZM57.9083 45.3543C58.8806 45.3543 59.4335 45.7165 59.4335 46.4219C59.4335 47.1273 58.8806 47.4895 57.9083 47.4895H55.9542V45.3543H57.9083ZM58.1466 50.4828H55.9542V48.2617H58.1466C59.2047 48.2617 59.7767 48.6049 59.7767 49.377C59.7767 50.1491 59.2047 50.4828 58.1466 50.4828ZM65.8759 46.2027V48.8146C65.8759 49.9013 65.2658 50.4923 64.3126 50.4923C63.4451 50.4923 62.9494 49.9966 62.9494 49.0052V46.2027H62.0343V49.1101C62.0343 50.5971 62.9018 51.3121 64.2077 51.3121C64.9227 51.3121 65.5518 51.0166 65.9236 50.4923V51.2549H66.791V46.2027H65.8759ZM70.7352 51.3121C71.6408 51.3121 72.3938 50.9308 72.7942 50.2254L72.0983 49.7869C71.7742 50.2826 71.2785 50.5113 70.7256 50.5113C69.7343 50.5113 68.9907 49.825 68.9907 48.7288C68.9907 47.6516 69.7343 46.9557 70.7256 46.9557C71.2785 46.9557 71.7742 47.1845 72.0983 47.6802L72.7942 47.2322C72.3938 46.5268 71.6408 46.155 70.7352 46.155C69.1814 46.155 68.0661 47.2226 68.0661 48.7288C68.0661 50.2349 69.1814 51.3121 70.7352 51.3121ZM76.0684 51.3121C77.5841 51.3121 78.6898 50.2349 78.6898 48.7288C78.6898 47.2226 77.5841 46.155 76.0684 46.155C74.5527 46.155 73.4374 47.2226 73.4374 48.7288C73.4374 50.2349 74.5527 51.3121 76.0684 51.3121ZM76.0684 50.5113C75.0961 50.5113 74.3621 49.8059 74.3621 48.7288C74.3621 47.6516 75.0961 46.9557 76.0684 46.9557C77.0407 46.9557 77.7652 47.6516 77.7652 48.7288C77.7652 49.8059 77.0407 50.5113 76.0684 50.5113ZM86.2754 46.155C85.4175 46.155 84.7121 46.5172 84.3308 47.0892C83.9972 46.46 83.349 46.155 82.5768 46.155C81.8142 46.155 81.1946 46.441 80.8324 46.9557V46.2027H79.9554V51.2549H80.8705V48.6525C80.8705 47.5563 81.4711 46.9748 82.3862 46.9748C83.2155 46.9748 83.6921 47.461 83.6921 48.4523V51.2549H84.6073V48.6525C84.6073 47.5563 85.2078 46.9748 86.1229 46.9748C86.9523 46.9748 87.4289 47.461 87.4289 48.4523V51.2549H88.344V48.3475C88.344 46.8604 87.5051 46.155 86.2754 46.155ZM91.8676 46.155C91.0573 46.155 90.3043 46.3838 89.78 46.8032L90.1613 47.4895C90.5521 47.1559 91.1622 46.9462 91.7627 46.9462C92.6683 46.9462 93.1164 47.3942 93.1164 48.1664V48.3475H91.6674C90.1613 48.3475 89.637 49.0147 89.637 49.825C89.637 50.702 90.3615 51.3121 91.5054 51.3121C92.2966 51.3121 92.859 51.0452 93.164 50.5876V51.2549H94.0315V48.2045C94.0315 46.8223 93.2498 46.155 91.8676 46.155ZM91.6579 50.6067C90.962 50.6067 90.5426 50.2921 90.5426 49.7869C90.5426 49.3579 90.8 49.0052 91.7055 49.0052H93.1164V49.7106C92.8876 50.2921 92.3442 50.6067 91.6579 50.6067ZM99.986 51.2549L97.9746 48.6716L99.8811 46.2027H98.8802L97.498 48.0234L96.1063 46.2027H95.0863L96.9833 48.6716L94.991 51.2549H96.011L97.4885 49.3198L98.947 51.2549H99.986ZM101.442 45.2303C101.804 45.2303 102.062 44.9634 102.062 44.6203C102.062 44.2962 101.795 44.0388 101.442 44.0388C101.089 44.0388 100.823 44.3057 100.823 44.6393C100.823 44.973 101.089 45.2303 101.442 45.2303ZM100.985 51.2549H101.9V46.2027H100.985V51.2549ZM103.647 51.2549H104.562V44.1818H103.647V51.2549ZM108.473 51.3121C109.989 51.3121 111.095 50.2349 111.095 48.7288C111.095 47.2226 109.989 46.155 108.473 46.155C106.958 46.155 105.842 47.2226 105.842 48.7288C105.842 50.2349 106.958 51.3121 108.473 51.3121ZM108.473 50.5113C107.501 50.5113 106.767 49.8059 106.767 48.7288C106.767 47.6516 107.501 46.9557 108.473 46.9557C109.446 46.9557 110.17 47.6516 110.17 48.7288C110.17 49.8059 109.446 50.5113 108.473 50.5113ZM114.21 44.8776C114.477 44.8776 114.724 44.973 114.915 45.116L115.191 44.4201C114.934 44.2199 114.553 44.1246 114.162 44.1246C113.085 44.1246 112.494 44.7728 112.494 45.7546V46.2027H111.636V46.9557H112.494V51.2549H113.409V46.9557H114.858V46.2027H113.39V45.7642C113.39 45.1827 113.666 44.8776 114.21 44.8776ZM117.468 46.155C116.657 46.155 115.904 46.3838 115.38 46.8032L115.761 47.4895C116.152 47.1559 116.762 46.9462 117.363 46.9462C118.268 46.9462 118.716 47.3942 118.716 48.1664V48.3475H117.267C115.761 48.3475 115.237 49.0147 115.237 49.825C115.237 50.702 115.961 51.3121 117.105 51.3121C117.897 51.3121 118.459 51.0452 118.764 50.5876V51.2549H119.631V48.2045C119.631 46.8223 118.85 46.155 117.468 46.155ZM117.258 50.6067C116.562 50.6067 116.143 50.2921 116.143 49.7869C116.143 49.3579 116.4 49.0052 117.305 49.0052H118.716V49.7106C118.488 50.2921 117.944 50.6067 117.258 50.6067ZM123.555 51.3121C124.46 51.3121 125.214 50.9308 125.614 50.2254L124.918 49.7869C124.594 50.2826 124.098 50.5113 123.545 50.5113C122.554 50.5113 121.81 49.825 121.81 48.7288C121.81 47.6516 122.554 46.9557 123.545 46.9557C124.098 46.9557 124.594 47.1845 124.918 47.6802L125.614 47.2322C125.214 46.5268 124.46 46.155 123.555 46.155C122.001 46.155 120.886 47.2226 120.886 48.7288C120.886 50.2349 122.001 51.3121 123.555 51.3121ZM127.256 45.2303C127.618 45.2303 127.876 44.9634 127.876 44.6203C127.876 44.2962 127.609 44.0388 127.256 44.0388C126.904 44.0388 126.637 44.3057 126.637 44.6393C126.637 44.973 126.904 45.2303 127.256 45.2303ZM126.799 51.2549H127.714V46.2027H126.799V51.2549ZM131.301 46.155C130.491 46.155 129.738 46.3838 129.213 46.8032L129.595 47.4895C129.985 47.1559 130.595 46.9462 131.196 46.9462C132.102 46.9462 132.55 47.3942 132.55 48.1664V48.3475H131.101C129.595 48.3475 129.07 49.0147 129.07 49.825C129.07 50.702 129.795 51.3121 130.939 51.3121C131.73 51.3121 132.292 51.0452 132.597 50.5876V51.2549H133.465V48.2045C133.465 46.8223 132.683 46.155 131.301 46.155ZM131.091 50.6067C130.395 50.6067 129.976 50.2921 129.976 49.7869C129.976 49.3579 130.233 49.0052 131.139 49.0052H132.55V49.7106C132.321 50.2921 131.777 50.6067 131.091 50.6067ZM135.158 51.2549H136.073V44.1818H135.158V51.2549Z" fill="#28AC9B"/>
<defs>
<linearGradient id="paint0_linear_1_141" x1="20.6946" y1="78.0125" x2="20.6946" y2="0.0164107" gradientUnits="userSpaceOnUse">
<stop stop-color="#0993A0"/>
<stop offset="1" stop-color="#2AAE9A"/>
</linearGradient>
</defs>
</svg>
