<svg width="108" height="202" viewBox="0 0 108 202" fill="none" xmlns="http://www.w3.org/2000/svg">
<path d="M107.157 0.0367573V128.699C107.157 169.173 74.3301 202 33.8566 202H19.9978C16.7996 187.884 14.0793 171.709 15.0351 166.011C16.7996 155.351 30.4379 152.998 42.863 153.292C55.2881 153.586 56.1703 142.926 56.1703 142.926C56.1703 142.926 58.8171 116.568 58.8171 110.944C58.8171 105.319 64.1474 104.731 64.1474 104.731L68.4852 103.077C71.279 102.011 72.1612 100.393 70.507 97.9305C66.5001 92.0488 59.9934 82.2337 56.7585 77.7856C52.9354 72.5288 53.4868 61.4639 53.4868 61.4639C53.4868 61.4639 58.376 40.2162 40.7309 20.9168C29.9232 8.01383 14.3367 2.31592 0 0H107.157V0.0367573Z" fill="url(#paint0_linear_1_231)"/>
<defs>
<linearGradient id="paint0_linear_1_231" x1="53.5938" y1="202.032" x2="53.5938" y2="0.0424996" gradientUnits="userSpaceOnUse">
<stop stop-color="#0993A0"/>
<stop offset="1" stop-color="#2AAE9A"/>
</linearGradient>
</defs>
</svg>
