<svg width="26" height="26" viewBox="0 0 26 26" fill="none" xmlns="http://www.w3.org/2000/svg">
<path opacity="0.4" d="M22.1234 3.78307C20.9315 2.57917 19.5119 1.62464 17.9473 0.975141C16.3827 0.325641 14.7044 -0.00582413 13.0104 7.74403e-05C5.91242 7.74403e-05 0.127437 5.78506 0.127437 12.883C0.127437 15.158 0.725436 17.368 1.84343 19.318L0.0234375 26L6.84842 24.206C8.73341 25.233 10.8524 25.779 13.0104 25.779C20.1084 25.779 25.8934 19.994 25.8934 12.896C25.8934 9.45105 24.5544 6.21406 22.1234 3.78307ZM13.0104 23.595C11.0864 23.595 9.20141 23.075 7.55042 22.1L7.16042 21.866L3.10443 22.932L4.18343 18.98L3.92343 18.577C2.8545 16.8701 2.28691 14.897 2.28543 12.883C2.28543 6.98106 7.09542 2.17107 12.9974 2.17107C15.8574 2.17107 18.5484 3.28907 20.5634 5.31706C21.5611 6.31021 22.3518 7.49152 22.8896 8.7925C23.4274 10.0935 23.7016 11.4883 23.6964 12.896C23.7224 18.798 18.9124 23.595 13.0104 23.595ZM18.8864 15.587C18.5614 15.431 16.9754 14.651 16.6894 14.534C16.3904 14.43 16.1824 14.378 15.9614 14.69C15.7404 15.015 15.1294 15.743 14.9474 15.951C14.7654 16.172 14.5704 16.198 14.2454 16.029C13.9204 15.873 12.8804 15.522 11.6584 14.43C10.6964 13.572 10.0594 12.519 9.86441 12.194C9.68241 11.869 9.83841 11.7 10.0074 11.531C10.1504 11.388 10.3324 11.154 10.4884 10.972C10.6444 10.79 10.7094 10.647 10.8134 10.439C10.9174 10.218 10.8654 10.036 10.7874 9.88005C10.7094 9.72405 10.0594 8.13805 9.79941 7.48806C9.53941 6.86406 9.26641 6.94206 9.07141 6.92906H8.44741C8.22641 6.92906 7.88841 7.00706 7.58942 7.33206C7.30342 7.65705 6.47142 8.43705 6.47142 10.023C6.47142 11.609 7.62842 13.143 7.78442 13.351C7.94041 13.572 10.0594 16.822 13.2834 18.213C14.0504 18.551 14.6484 18.746 15.1164 18.889C15.8834 19.136 16.5854 19.097 17.1444 19.019C17.7684 18.928 19.0554 18.239 19.3154 17.485C19.5884 16.731 19.5884 16.094 19.4974 15.951C19.4064 15.808 19.2114 15.743 18.8864 15.587Z" fill="#2AAE9B"/>
</svg>
