<svg width="16" height="16" viewBox="0 0 16 16" fill="none" xmlns="http://www.w3.org/2000/svg">
<path d="M13.6 2.32805C12.8666 1.58719 11.993 0.999783 11.0301 0.600089C10.0673 0.200395 9.0345 -0.00358409 7.99201 4.76557e-05C3.624 4.76557e-05 0.0640002 3.56005 0.0640002 7.92805C0.0640002 9.32805 0.432 10.6881 1.12 11.8881L0 16.0001L4.2 14.8961C5.36 15.5281 6.664 15.8641 7.99201 15.8641C12.36 15.8641 15.92 12.3041 15.92 7.93605C15.92 5.81605 15.096 3.82405 13.6 2.32805ZM7.99201 14.5201C6.808 14.5201 5.648 14.2001 4.632 13.6001L4.392 13.4561L1.896 14.1121L2.56 11.6801L2.4 11.4321C1.7422 10.3816 1.39291 9.16745 1.392 7.92805C1.392 4.29605 4.352 1.33605 7.98401 1.33605C9.74401 1.33605 11.4 2.02405 12.64 3.27205C13.254 3.88322 13.7406 4.61018 14.0715 5.41079C14.4025 6.2114 14.5712 7.06974 14.568 7.93605C14.584 11.5681 11.624 14.5201 7.99201 14.5201ZM11.608 9.59205C11.408 9.49605 10.432 9.01605 10.256 8.94405C10.072 8.88005 9.94401 8.84805 9.80801 9.04005C9.67201 9.24005 9.29601 9.68806 9.18401 9.81606C9.07201 9.95205 8.95201 9.96805 8.75201 9.86405C8.55201 9.76805 7.91201 9.55205 7.16001 8.88005C6.568 8.35205 6.176 7.70405 6.056 7.50405C5.944 7.30405 6.04 7.20005 6.144 7.09605C6.232 7.00805 6.34401 6.86405 6.44 6.75205C6.53601 6.64005 6.576 6.55205 6.64001 6.42405C6.70401 6.28805 6.672 6.17605 6.624 6.08005C6.576 5.98405 6.176 5.00805 6.016 4.60805C5.856 4.22405 5.688 4.27205 5.568 4.26405H5.184C5.048 4.26405 4.84 4.31205 4.656 4.51205C4.48 4.71205 3.968 5.19205 3.968 6.16805C3.968 7.14405 4.68 8.08805 4.776 8.21605C4.872 8.35205 6.176 10.3521 8.16001 11.2081C8.63201 11.4161 9.00001 11.5361 9.28801 11.6241C9.76001 11.7761 10.192 11.7521 10.536 11.7041C10.92 11.6481 11.712 11.2241 11.872 10.7601C12.04 10.2961 12.04 9.90406 11.984 9.81606C11.928 9.72806 11.808 9.68805 11.608 9.59205Z" fill="white"/>
</svg>
